<svg width="43" height="12" viewBox="0 0 43 12" fill="none" xmlns="http://www.w3.org/2000/svg">
<path d="M12.82 9V1.95H15.31C16.47 1.95 17.3633 2.25333 17.99 2.86C18.6233 3.46667 18.94 4.33667 18.94 5.47C18.94 6.60333 18.6233 7.47667 17.99 8.09C17.3633 8.69667 16.47 9 15.31 9H12.82ZM13.86 8.13H15.25C16.99 8.13 17.86 7.24333 17.86 5.47C17.86 3.70333 16.99 2.82 15.25 2.82H13.86V8.13ZM22.5098 9.09C21.7098 9.09 21.0798 8.86667 20.6198 8.42C20.1598 7.96667 19.9298 7.35 19.9298 6.57C19.9298 6.07 20.0298 5.63 20.2298 5.25C20.4364 4.86333 20.7198 4.56333 21.0798 4.35C21.4398 4.13667 21.8531 4.03 22.3198 4.03C22.9931 4.03 23.5231 4.24667 23.9098 4.68C24.2964 5.10667 24.4898 5.69667 24.4898 6.45V6.79H20.9098C20.9831 7.80333 21.5198 8.31 22.5198 8.31C22.7998 8.31 23.0731 8.26667 23.3398 8.18C23.6131 8.09333 23.8698 7.95 24.1098 7.75L24.4098 8.45C24.1898 8.65 23.9064 8.80667 23.5598 8.92C23.2131 9.03333 22.8631 9.09 22.5098 9.09ZM22.3598 4.74C21.9398 4.74 21.6064 4.87 21.3598 5.13C21.1131 5.39 20.9631 5.73667 20.9098 6.17H23.6398C23.6198 5.71667 23.4998 5.36667 23.2798 5.12C23.0598 4.86667 22.7531 4.74 22.3598 4.74ZM27.1809 9.09C26.6475 9.09 26.2475 8.94 25.9809 8.64C25.7209 8.34 25.5909 7.9 25.5909 7.32V1.95H26.6009V7.26C26.6009 7.92 26.8709 8.25 27.4109 8.25C27.4909 8.25 27.5642 8.24667 27.6309 8.24C27.7042 8.23333 27.7775 8.22 27.8509 8.2L27.8309 9.01C27.6042 9.06333 27.3875 9.09 27.1809 9.09ZM30.8887 9.09C30.0887 9.09 29.4587 8.86667 28.9987 8.42C28.5387 7.96667 28.3087 7.35 28.3087 6.57C28.3087 6.07 28.4087 5.63 28.6087 5.25C28.8153 4.86333 29.0987 4.56333 29.4587 4.35C29.8187 4.13667 30.232 4.03 30.6987 4.03C31.372 4.03 31.902 4.24667 32.2887 4.68C32.6753 5.10667 32.8687 5.69667 32.8687 6.45V6.79H29.2887C29.362 7.80333 29.8987 8.31 30.8987 8.31C31.1787 8.31 31.452 8.26667 31.7187 8.18C31.992 8.09333 32.2487 7.95 32.4887 7.75L32.7887 8.45C32.5687 8.65 32.2853 8.80667 31.9387 8.92C31.592 9.03333 31.242 9.09 30.8887 9.09ZM30.7387 4.74C30.3187 4.74 29.9853 4.87 29.7387 5.13C29.492 5.39 29.342 5.73667 29.2887 6.17H32.0187C31.9987 5.71667 31.8787 5.36667 31.6587 5.12C31.4387 4.86667 31.132 4.74 30.7387 4.74ZM36.04 9.09C35.4267 9.09 34.97 8.93333 34.67 8.62C34.37 8.30667 34.22 7.85333 34.22 7.26V4.9H33.27V4.12H34.22V2.65H35.23V4.12H36.74V4.9H35.23V7.18C35.23 7.53333 35.3033 7.8 35.45 7.98C35.6033 8.16 35.85 8.25 36.19 8.25C36.2967 8.25 36.4 8.24 36.5 8.22C36.6 8.19333 36.7 8.16333 36.8 8.13L36.96 8.89C36.86 8.95 36.72 8.99667 36.54 9.03C36.3667 9.07 36.2 9.09 36.04 9.09ZM39.8535 9.09C39.0535 9.09 38.4235 8.86667 37.9635 8.42C37.5035 7.96667 37.2735 7.35 37.2735 6.57C37.2735 6.07 37.3735 5.63 37.5735 5.25C37.7802 4.86333 38.0635 4.56333 38.4235 4.35C38.7835 4.13667 39.1968 4.03 39.6635 4.03C40.3368 4.03 40.8668 4.24667 41.2535 4.68C41.6402 5.10667 41.8335 5.69667 41.8335 6.45V6.79H38.2535C38.3268 7.80333 38.8635 8.31 39.8635 8.31C40.1435 8.31 40.4168 8.26667 40.6835 8.18C40.9568 8.09333 41.2135 7.95 41.4535 7.75L41.7535 8.45C41.5335 8.65 41.2502 8.80667 40.9035 8.92C40.5568 9.03333 40.2068 9.09 39.8535 9.09ZM39.7035 4.74C39.2835 4.74 38.9502 4.87 38.7035 5.13C38.4568 5.39 38.3068 5.73667 38.2535 6.17H40.9835C40.9635 5.71667 40.8435 5.36667 40.6235 5.12C40.4035 4.86667 40.0968 4.74 39.7035 4.74Z" fill="#00B8A9"/>
<path d="M7.6001 3.40002L7.35221 7.41006C7.28887 8.4346 7.25721 8.94688 7.0004 9.31517C6.87343 9.49726 6.70996 9.65094 6.52038 9.76643C6.13694 10 5.62369 10 4.5972 10C3.56934 10 3.05542 10 2.67172 9.766C2.48202 9.65029 2.3185 9.49635 2.19157 9.31396C1.93485 8.94506 1.90388 8.43207 1.84194 7.40609L1.6001 3.40002" stroke="#00B8A9" stroke-linecap="round"/>
<path d="M8.2 3.40002H1" stroke="#00B8A9" stroke-linecap="round"/>
<path d="M6.22212 3.4L5.94905 2.83669C5.76766 2.4625 5.67696 2.27541 5.52051 2.15872C5.48581 2.13284 5.44906 2.10982 5.41064 2.08988C5.23739 2 5.02947 2 4.61364 2C4.18736 2 3.97422 2 3.7981 2.09365C3.75907 2.1144 3.72182 2.13836 3.68674 2.16527C3.52848 2.28668 3.44008 2.48062 3.26327 2.8685L3.021 3.4" stroke="#00B8A9" stroke-linecap="round"/>
<path d="M3.6001 7.80005L3.6001 5.40005" stroke="#00B8A9" stroke-linecap="round"/>
<path d="M5.6001 7.80015L5.6001 5.40015" stroke="#00B8A9" stroke-linecap="round"/>
</svg>
