<svg width="11" height="12" viewBox="0 0 11 12" fill="none" xmlns="http://www.w3.org/2000/svg">
<path d="M8.39726 4.78338L5.71166 7.46898C5.62214 7.5585 5.53262 7.60326 5.39834 7.60326C5.26406 7.60326 5.17454 7.5585 5.08502 7.46898L2.39942 4.78338C2.22038 4.60434 2.22038 4.33578 2.39942 4.15674C2.57846 3.9777 2.84702 3.9777 3.02606 4.15674L5.39834 6.52902L7.77062 4.15674C7.94966 3.9777 8.21822 3.9777 8.39726 4.15674C8.5763 4.33578 8.5763 4.60434 8.39726 4.78338Z" fill="black"/>
<mask id="mask0_166_7746" style="mask-type:luminance" maskUnits="userSpaceOnUse" x="2" y="4" width="7" height="4">
<path d="M8.39726 4.78338L5.71166 7.46898C5.62214 7.5585 5.53262 7.60326 5.39834 7.60326C5.26406 7.60326 5.17454 7.5585 5.08502 7.46898L2.39942 4.78338C2.22038 4.60434 2.22038 4.33578 2.39942 4.15674C2.57846 3.9777 2.84702 3.9777 3.02606 4.15674L5.39834 6.52902L7.77062 4.15674C7.94966 3.9777 8.21822 3.9777 8.39726 4.15674C8.5763 4.33578 8.5763 4.60434 8.39726 4.78338Z" fill="white"/>
</mask>
<g mask="url(#mask0_166_7746)">
<rect x="0.0273438" y="0.44165" width="10.7424" height="10.7424" fill="#BABFC7"/>
</g>
</svg>
