<svg width="15" height="15" viewBox="0 0 15 15" fill="none" xmlns="http://www.w3.org/2000/svg">
<path fill-rule="evenodd" clip-rule="evenodd" d="M10.7444 10.1828L13.3872 12.8256C13.6221 13.0605 13.6221 13.4129 13.3872 13.6478C13.2698 13.7653 13.0936 13.824 12.9761 13.824C12.8587 13.824 12.6825 13.7653 12.565 13.6478L9.92214 11.005C9.04119 11.651 7.98405 12.0621 6.80945 12.0621C4.04913 12.0621 1.81738 9.83038 1.81738 7.07007C1.81738 4.30975 4.04913 2.078 6.80945 2.078C9.56976 2.078 11.8015 4.30975 11.8015 7.07007C11.8015 8.24467 11.3904 9.36054 10.7444 10.1828ZM6.80916 3.25259C4.69487 3.25259 2.9917 4.95576 2.9917 7.07005C2.9917 9.18433 4.69487 10.8875 6.80916 10.8875C7.8663 10.8875 8.80599 10.4764 9.51075 9.77164C10.2155 9.06687 10.6266 8.12719 10.6266 7.07005C10.6266 4.95576 8.92345 3.25259 6.80916 3.25259Z" fill="black"/>
<mask id="mask0_160_2453" style="mask-type:luminance" maskUnits="userSpaceOnUse" x="1" y="2" width="13" height="12">
<path fill-rule="evenodd" clip-rule="evenodd" d="M10.7444 10.1828L13.3872 12.8256C13.6221 13.0605 13.6221 13.4129 13.3872 13.6478C13.2698 13.7653 13.0936 13.824 12.9761 13.824C12.8587 13.824 12.6825 13.7653 12.565 13.6478L9.92214 11.005C9.04119 11.651 7.98405 12.0621 6.80945 12.0621C4.04913 12.0621 1.81738 9.83038 1.81738 7.07007C1.81738 4.30975 4.04913 2.078 6.80945 2.078C9.56976 2.078 11.8015 4.30975 11.8015 7.07007C11.8015 8.24467 11.3904 9.36054 10.7444 10.1828ZM6.80916 3.25259C4.69487 3.25259 2.9917 4.95576 2.9917 7.07005C2.9917 9.18433 4.69487 10.8875 6.80916 10.8875C7.8663 10.8875 8.80599 10.4764 9.51075 9.77164C10.2155 9.06687 10.6266 8.12719 10.6266 7.07005C10.6266 4.95576 8.92345 3.25259 6.80916 3.25259Z" fill="white"/>
</mask>
<g mask="url(#mask0_160_2453)">
<rect x="0.642578" y="0.903442" width="14.0952" height="14.0952" fill="#BABFC7"/>
</g>
</svg>
