<svg width="15" height="15" viewBox="0 0 15 15" fill="none" xmlns="http://www.w3.org/2000/svg">
<path fill-rule="evenodd" clip-rule="evenodd" d="M7.63879 4.31942C8.2807 4.31942 8.8059 3.79085 8.8059 3.14482C8.8059 2.49879 8.2807 1.97021 7.63879 1.97021C6.99688 1.97021 6.47168 2.49879 6.47168 3.14482C6.47168 3.79085 6.99688 4.31942 7.63879 4.31942ZM8.8059 7.25595C8.8059 7.90198 8.2807 8.43055 7.63879 8.43055C6.99688 8.43055 6.47168 7.90198 6.47168 7.25595C6.47168 6.60992 6.99688 6.08134 7.63879 6.08134C8.2807 6.08134 8.8059 6.60992 8.8059 7.25595ZM6.47168 11.367C6.47168 10.721 6.99688 10.1924 7.63879 10.1924C8.2807 10.1924 8.8059 10.721 8.8059 11.367C8.8059 12.0131 8.2807 12.5416 7.63879 12.5416C6.99688 12.5416 6.47168 12.0131 6.47168 11.367Z" fill="black"/>
<mask id="mask0_160_2409" style="mask-type:luminance" maskUnits="userSpaceOnUse" x="6" y="1" width="3" height="12">
<path fill-rule="evenodd" clip-rule="evenodd" d="M7.63879 4.31942C8.2807 4.31942 8.8059 3.79085 8.8059 3.14482C8.8059 2.49879 8.2807 1.97021 7.63879 1.97021C6.99688 1.97021 6.47168 2.49879 6.47168 3.14482C6.47168 3.79085 6.99688 4.31942 7.63879 4.31942ZM8.8059 7.25595C8.8059 7.90198 8.2807 8.43055 7.63879 8.43055C6.99688 8.43055 6.47168 7.90198 6.47168 7.25595C6.47168 6.60992 6.99688 6.08134 7.63879 6.08134C8.2807 6.08134 8.8059 6.60992 8.8059 7.25595ZM6.47168 11.367C6.47168 10.721 6.99688 10.1924 7.63879 10.1924C8.2807 10.1924 8.8059 10.721 8.8059 11.367C8.8059 12.0131 8.2807 12.5416 7.63879 12.5416C6.99688 12.5416 6.47168 12.0131 6.47168 11.367Z" fill="white"/>
</mask>
<g mask="url(#mask0_160_2409)">
<rect x="0.636719" y="0.208252" width="14.0053" height="14.0952" fill="#6E6B7B"/>
</g>
</svg>
