<svg width="26" height="26" viewBox="0 0 26 26" fill="none" xmlns="http://www.w3.org/2000/svg">
<rect x="0.605957" y="0.467163" width="25.0656" height="25.0656" rx="12.5328" fill="#F3F2F7"/>
<path d="M15.3468 16.163C15.5855 16.4017 15.5855 16.7598 15.3468 16.9985C15.2275 17.1179 15.1081 17.1776 14.9291 17.1776C14.75 17.1776 14.6307 17.1179 14.5113 16.9985L10.9305 13.4177C10.6918 13.179 10.6918 12.8209 10.9305 12.5822L14.5113 9.00143C14.75 8.76271 15.1081 8.76271 15.3468 9.00143C15.5855 9.24015 15.5855 9.59823 15.3468 9.83695L12.1838 13L15.3468 16.163Z" fill="black"/>
<mask id="mask0_169_2695" style="mask-type:luminance" maskUnits="userSpaceOnUse" x="10" y="8" width="6" height="10">
<path d="M15.3468 16.163C15.5855 16.4017 15.5855 16.7598 15.3468 16.9985C15.2275 17.1179 15.1081 17.1776 14.9291 17.1776C14.75 17.1776 14.6307 17.1179 14.5113 16.9985L10.9305 13.4177C10.6918 13.179 10.6918 12.8209 10.9305 12.5822L14.5113 9.00143C14.75 8.76271 15.1081 8.76271 15.3468 9.00143C15.5855 9.24015 15.5855 9.59823 15.3468 9.83695L12.1838 13L15.3468 16.163Z" fill="white"/>
</mask>
<g mask="url(#mask0_169_2695)">
<rect x="5.97705" y="5.83838" width="14.3232" height="14.3232" fill="#00B8A9"/>
</g>
</svg>
