<svg width="19" height="16" viewBox="0 0 19 16" fill="none" xmlns="http://www.w3.org/2000/svg">
<path fill-rule="evenodd" clip-rule="evenodd" d="M16.0622 0H2.53614C1.09899 0 0 1.09846 0 2.53491V12.6745C0 14.111 1.09899 15.2095 2.53614 15.2095H16.0622C17.4994 15.2095 18.5983 14.111 18.5983 12.6745V2.53491C18.5983 1.09846 17.4994 0 16.0622 0ZM2.53621 1.69008H16.0623C16.4004 1.69008 16.654 1.85907 16.8231 2.19706L9.29925 7.43587L1.77537 2.19706C1.94445 1.85907 2.19806 1.69008 2.53621 1.69008ZM1.69093 12.6753C1.69093 13.1823 2.02908 13.5202 2.53631 13.5202H16.0624C16.5696 13.5202 16.9078 13.1823 16.9078 12.6753V4.14108L9.80657 9.1264C9.6375 9.2109 9.46842 9.29539 9.29934 9.29539C9.13027 9.29539 8.96119 9.2109 8.79212 9.1264L1.69093 4.14108V12.6753Z" fill="black"/>
</svg>
