<svg width="27" height="26" viewBox="0 0 27 26" fill="none" xmlns="http://www.w3.org/2000/svg">
<rect x="0.969238" y="0.467163" width="25.0656" height="25.0656" rx="12.5328" fill="#F3F2F7"/>
<path d="M15.7101 13.4177L12.1293 16.9985C12.0099 17.1179 11.8906 17.1776 11.7115 17.1776C11.5325 17.1776 11.4131 17.1179 11.2938 16.9985C11.0551 16.7598 11.0551 16.4017 11.2938 16.163L14.4568 13L11.2938 9.83695C11.0551 9.59823 11.0551 9.24015 11.2938 9.00143C11.5325 8.76271 11.8906 8.76271 12.1293 9.00143L15.7101 12.5822C15.9488 12.8209 15.9488 13.179 15.7101 13.4177Z" fill="black"/>
<mask id="mask0_169_2682" style="mask-type:luminance" maskUnits="userSpaceOnUse" x="11" y="8" width="5" height="10">
<path d="M15.7101 13.4177L12.1293 16.9985C12.0099 17.1179 11.8906 17.1776 11.7115 17.1776C11.5325 17.1776 11.4131 17.1179 11.2938 16.9985C11.0551 16.7598 11.0551 16.4017 11.2938 16.163L14.4568 13L11.2938 9.83695C11.0551 9.59823 11.0551 9.24015 11.2938 9.00143C11.5325 8.76271 11.8906 8.76271 12.1293 9.00143L15.7101 12.5822C15.9488 12.8209 15.9488 13.179 15.7101 13.4177Z" fill="white"/>
</mask>
<g mask="url(#mask0_169_2682)">
<rect x="6.34033" y="5.83838" width="14.3232" height="14.3232" fill="#00B8A9"/>
</g>
</svg>
