<svg width="3" height="13" viewBox="0 0 3 13" fill="none" xmlns="http://www.w3.org/2000/svg">
<path fill-rule="evenodd" clip-rule="evenodd" d="M1.3428 2.6856C2.08134 2.6856 2.6856 2.08134 2.6856 1.3428C2.6856 0.60426 2.08134 0 1.3428 0C0.60426 0 0 0.60426 0 1.3428C0 2.08134 0.60426 2.6856 1.3428 2.6856ZM2.68573 6.04264C2.68573 6.78118 2.08147 7.38544 1.34293 7.38544C0.604393 7.38544 0.000132918 6.78118 0.000132918 6.04264C0.000132918 5.3041 0.604393 4.69984 1.34293 4.69984C2.08147 4.69984 2.68573 5.3041 2.68573 6.04264ZM0.000132918 10.7424C0.000132918 10.0039 0.604393 9.39964 1.34293 9.39964C2.08147 9.39964 2.68573 10.0039 2.68573 10.7424C2.68573 11.481 2.08147 12.0852 1.34293 12.0852C0.604393 12.0852 0.000132918 11.481 0.000132918 10.7424Z" fill="black"/>
</svg>
