<svg width="11" height="12" viewBox="0 0 11 12" fill="none" xmlns="http://www.w3.org/2000/svg">
<path d="M8.39726 7.72655C8.30774 7.81607 8.21822 7.86083 8.08394 7.86083C7.94966 7.86083 7.86014 7.81607 7.77062 7.72655L5.39834 5.35427L3.02606 7.72655C2.84702 7.90559 2.57846 7.90559 2.39942 7.72655C2.22038 7.54751 2.22038 7.27895 2.39942 7.09991L5.08502 4.41431C5.26406 4.23527 5.53262 4.23527 5.71166 4.41431L8.39726 7.09991C8.5763 7.27895 8.5763 7.54751 8.39726 7.72655Z" fill="black"/>
<mask id="mask0_166_7747" style="mask-type:luminance" maskUnits="userSpaceOnUse" x="2" y="4" width="7" height="4">
<path d="M8.39726 7.72655C8.30774 7.81607 8.21822 7.86083 8.08394 7.86083C7.94966 7.86083 7.86014 7.81607 7.77062 7.72655L5.39834 5.35427L3.02606 7.72655C2.84702 7.90559 2.57846 7.90559 2.39942 7.72655C2.22038 7.54751 2.22038 7.27895 2.39942 7.09991L5.08502 4.41431C5.26406 4.23527 5.53262 4.23527 5.71166 4.41431L8.39726 7.09991C8.5763 7.27895 8.5763 7.54751 8.39726 7.72655Z" fill="white"/>
</mask>
<g mask="url(#mask0_166_7747)">
<rect x="0.0273438" y="0.699219" width="10.7424" height="10.7424" fill="#6E6B7B"/>
</g>
</svg>
