<svg width="15" height="16" viewBox="0 0 15 16" fill="none" xmlns="http://www.w3.org/2000/svg">
<path d="M11.6024 6.6232L8.02163 10.204C7.90227 10.3234 7.78291 10.383 7.60387 10.383C7.42483 10.383 7.30547 10.3234 7.18611 10.204L3.60531 6.6232C3.36659 6.38448 3.36659 6.0264 3.60531 5.78768C3.84403 5.54896 4.20211 5.54896 4.44083 5.78768L7.60387 8.95072L10.7669 5.78768C11.0056 5.54896 11.3637 5.54896 11.6024 5.78768C11.8412 6.0264 11.8412 6.38448 11.6024 6.6232Z" fill="black"/>
<mask id="mask0_166_7753" style="mask-type:luminance" maskUnits="userSpaceOnUse" x="3" y="5" width="9" height="6">
<path d="M11.6024 6.6232L8.02163 10.204C7.90227 10.3234 7.78291 10.383 7.60387 10.383C7.42483 10.383 7.30547 10.3234 7.18611 10.204L3.60531 6.6232C3.36659 6.38448 3.36659 6.0264 3.60531 5.78768C3.84403 5.54896 4.20211 5.54896 4.44083 5.78768L7.60387 8.95072L10.7669 5.78768C11.0056 5.54896 11.3637 5.54896 11.6024 5.78768C11.8412 6.0264 11.8412 6.38448 11.6024 6.6232Z" fill="white"/>
</mask>
<g mask="url(#mask0_166_7753)">
<rect x="0.442383" y="0.834351" width="14.3232" height="14.3232" fill="#B9B9C3"/>
</g>
</svg>
