<svg width="20" height="15" viewBox="0 0 20 15" fill="none" xmlns="http://www.w3.org/2000/svg">
<path d="M10 0C10.7735 0 11.5154 0.368749 12.0624 1.02513C12.6094 1.6815 12.9167 2.57174 12.9167 3.5C12.9167 4.42826 12.6094 5.3185 12.0624 5.97487C11.5154 6.63125 10.7735 7 10 7C9.22645 7 8.48459 6.63125 7.93761 5.97487C7.39062 5.3185 7.08333 4.42826 7.08333 3.5C7.08333 2.57174 7.39062 1.6815 7.93761 1.02513C8.48459 0.368749 9.22645 0 10 0ZM4.16667 2.5C4.63333 2.5 5.06667 2.65 5.44167 2.92C5.31667 4.35 5.66667 5.77 6.38333 6.88C5.96667 7.84 5.13333 8.5 4.16667 8.5C3.50363 8.5 2.86774 8.18393 2.3989 7.62132C1.93006 7.05871 1.66667 6.29565 1.66667 5.5C1.66667 4.70435 1.93006 3.94129 2.3989 3.37868C2.86774 2.81607 3.50363 2.5 4.16667 2.5ZM15.8333 2.5C16.4964 2.5 17.1323 2.81607 17.6011 3.37868C18.0699 3.94129 18.3333 4.70435 18.3333 5.5C18.3333 6.29565 18.0699 7.05871 17.6011 7.62132C17.1323 8.18393 16.4964 8.5 15.8333 8.5C14.8667 8.5 14.0333 7.84 13.6167 6.88C14.3432 5.75442 14.6805 4.3362 14.5583 2.92C14.9333 2.65 15.3667 2.5 15.8333 2.5ZM4.58333 12.75C4.58333 10.68 7.00833 9 10 9C12.9917 9 15.4167 10.68 15.4167 12.75V14.5H4.58333V12.75ZM0 14.5V13C0 11.61 1.575 10.44 3.70833 10.1C3.21667 10.78 2.91667 11.72 2.91667 12.75V14.5H0ZM20 14.5H17.0833V12.75C17.0833 11.72 16.7833 10.78 16.2917 10.1C18.425 10.44 20 11.61 20 13V14.5Z" fill="black"/>
</svg>
