<svg width="46" height="46" viewBox="0 0 46 46" fill="none" xmlns="http://www.w3.org/2000/svg">
<circle cx="23" cy="23" r="23" fill="#00B8A9" fill-opacity="0.25"/>
<path fill-rule="evenodd" clip-rule="evenodd" d="M15.0159 18C15.0159 15.2 17.2247 13 20.0359 13C22.847 13 25.0558 15.2 25.0558 18C25.0558 20.8 22.847 23 20.0359 23C17.2247 23 15.0159 20.8 15.0159 18ZM29.0718 30V32C29.0718 32.6 28.6702 33 28.0678 33C27.4654 33 27.0638 32.6 27.0638 32V30C27.0638 28.3 25.7586 27 24.0518 27H16.0199C14.3132 27 13.008 28.3 13.008 30V32C13.008 32.6 12.6064 33 12.004 33C11.4016 33 11 32.6 11 32V30C11 27.2 13.2088 25 16.0199 25H24.0518C26.863 25 29.0718 27.2 29.0718 30ZM20.0359 21C18.3291 21 17.0239 19.7 17.0239 18C17.0239 16.3 18.3291 15 20.0359 15C21.7427 15 23.0478 16.3 23.0478 18C23.0478 19.7 21.7427 21 20.0359 21ZM31.2805 25.2C30.7785 25.1 30.1761 25.4 30.0757 25.9C29.9753 26.4 30.2765 27 30.7785 27.1C32.0837 27.4 32.9873 28.6 32.9873 30V32C32.9873 32.6 33.3889 33 33.9913 33C34.5937 33 34.9953 32.6 34.9953 32V30C35.0957 27.7 33.5897 25.7 31.2805 25.2ZM26.0598 13.9C26.2606 13.3 26.7626 13 27.2646 13.2C29.9753 13.8 31.5817 16.6 30.8789 19.4C30.4773 21.2 29.0718 22.5 27.2646 23H27.0638C26.5618 23 26.1602 22.7 26.0598 22.2C25.859 21.7 26.2606 21.1 26.7626 21C27.867 20.7 28.6702 19.9 28.9714 18.8C29.3729 17.1 28.369 15.5 26.7626 15.1C26.2606 15 25.9594 14.4 26.0598 13.9Z" fill="black"/>
<mask id="mask0_160_1466" style="mask-type:luminance" maskUnits="userSpaceOnUse" x="11" y="13" width="24" height="20">
<path fill-rule="evenodd" clip-rule="evenodd" d="M15.0159 18C15.0159 15.2 17.2247 13 20.0359 13C22.847 13 25.0558 15.2 25.0558 18C25.0558 20.8 22.847 23 20.0359 23C17.2247 23 15.0159 20.8 15.0159 18ZM29.0718 30V32C29.0718 32.6 28.6702 33 28.0678 33C27.4654 33 27.0638 32.6 27.0638 32V30C27.0638 28.3 25.7586 27 24.0518 27H16.0199C14.3132 27 13.008 28.3 13.008 30V32C13.008 32.6 12.6064 33 12.004 33C11.4016 33 11 32.6 11 32V30C11 27.2 13.2088 25 16.0199 25H24.0518C26.863 25 29.0718 27.2 29.0718 30ZM20.0359 21C18.3291 21 17.0239 19.7 17.0239 18C17.0239 16.3 18.3291 15 20.0359 15C21.7427 15 23.0478 16.3 23.0478 18C23.0478 19.7 21.7427 21 20.0359 21ZM31.2805 25.2C30.7785 25.1 30.1761 25.4 30.0757 25.9C29.9753 26.4 30.2765 27 30.7785 27.1C32.0837 27.4 32.9873 28.6 32.9873 30V32C32.9873 32.6 33.3889 33 33.9913 33C34.5937 33 34.9953 32.6 34.9953 32V30C35.0957 27.7 33.5897 25.7 31.2805 25.2ZM26.0598 13.9C26.2606 13.3 26.7626 13 27.2646 13.2C29.9753 13.8 31.5817 16.6 30.8789 19.4C30.4773 21.2 29.0718 22.5 27.2646 23H27.0638C26.5618 23 26.1602 22.7 26.0598 22.2C25.859 21.7 26.2606 21.1 26.7626 21C27.867 20.7 28.6702 19.9 28.9714 18.8C29.3729 17.1 28.369 15.5 26.7626 15.1C26.2606 15 25.9594 14.4 26.0598 13.9Z" fill="white"/>
</mask>
<g mask="url(#mask0_160_1466)">
<rect width="24" height="24" transform="translate(11 11)" fill="#00B8A9"/>
<rect x="11" y="11" width="24" height="24" fill="#00B8A9"/>
</g>
</svg>
