<svg width="9" height="12" viewBox="0 0 12 12" fill="none" xmlns="http://www.w3.org/2000/svg">
<g opacity="0.8">
<mask id="path-1-inside-1_166_4631" fill="white">
<path d="M7.08213 5.99991L11.7433 10.6727C12.0467 10.9767 12.0467 11.4681 11.7433 11.772C11.4401 12.076 10.9499 12.076 10.6467 11.772L5.98535 7.09924L1.32414 11.772C1.0208 12.076 0.530709 12.076 0.227507 11.772C-0.0758358 11.4681 -0.0758358 10.9767 0.227507 10.6727L4.88871 5.99991L0.227507 1.32711C-0.0758358 1.02317 -0.0758358 0.531728 0.227507 0.227781C0.378611 0.0761642 0.577289 0 0.775826 0C0.974362 0 1.1729 0.0761642 1.32414 0.227781L5.98535 4.90058L10.6467 0.227781C10.7979 0.0761642 10.9965 0 11.195 0C11.3935 0 11.5921 0.0761642 11.7433 0.227781C12.0467 0.531728 12.0467 1.02317 11.7433 1.32711L7.08213 5.99991Z"/>
</mask>
<path d="M7.08213 5.99991L11.7433 10.6727C12.0467 10.9767 12.0467 11.4681 11.7433 11.772C11.4401 12.076 10.9499 12.076 10.6467 11.772L5.98535 7.09924L1.32414 11.772C1.0208 12.076 0.530709 12.076 0.227507 11.772C-0.0758358 11.4681 -0.0758358 10.9767 0.227507 10.6727L4.88871 5.99991L0.227507 1.32711C-0.0758358 1.02317 -0.0758358 0.531728 0.227507 0.227781C0.378611 0.0761642 0.577289 0 0.775826 0C0.974362 0 1.1729 0.0761642 1.32414 0.227781L5.98535 4.90058L10.6467 0.227781C10.7979 0.0761642 10.9965 0 11.195 0C11.3935 0 11.5921 0.0761642 11.7433 0.227781C12.0467 0.531728 12.0467 1.02317 11.7433 1.32711L7.08213 5.99991Z" fill="#FDA800"/>
<path d="M7.08213 5.99991L4.53338 8.54233L1.99727 5.99991L4.53338 3.45749L7.08213 5.99991ZM11.7433 10.6727L9.19522 13.2158L9.19459 13.2151L11.7433 10.6727ZM11.7433 11.772L9.19462 9.22958L9.19522 9.22898L11.7433 11.772ZM10.6467 11.772L8.09799 14.3145L8.09799 14.3145L10.6467 11.772ZM5.98535 7.09924L3.4366 4.55682L5.98531 2.00178L8.53405 4.55678L5.98535 7.09924ZM1.32414 11.772L3.87289 14.3145L3.87225 14.3151L1.32414 11.772ZM0.227507 11.772L2.77562 9.22898L2.77621 9.22958L0.227507 11.772ZM0.227507 10.6727L2.77625 13.2151L2.77562 13.2158L0.227507 10.6727ZM4.88871 5.99991L7.43746 3.45749L9.97357 5.99991L7.43746 8.54233L4.88871 5.99991ZM0.227507 1.32711L2.77562 -1.21594L2.77625 -1.21531L0.227507 1.32711ZM0.227507 0.227781L2.77741 2.76904L2.77562 2.77084L0.227507 0.227781ZM1.32414 0.227781L3.87285 -2.31468L3.87289 -2.31464L1.32414 0.227781ZM5.98535 4.90058L8.53405 7.44304L5.98531 9.99805L3.4366 7.443L5.98535 4.90058ZM10.6467 0.227781L13.1954 2.77024L10.6467 0.227781ZM11.7433 0.227781L9.19522 2.77084L9.19463 2.77024L11.7433 0.227781ZM11.7433 1.32711L9.19459 -1.21531L9.19522 -1.21594L11.7433 1.32711ZM9.63087 3.45749L14.2921 8.13029L9.19459 13.2151L4.53338 8.54233L9.63087 3.45749ZM14.2914 8.12965C15.9973 9.83891 15.9973 12.6058 14.2914 14.3151L9.19522 9.22898C8.09604 10.3303 8.09604 12.1144 9.19522 13.2158L14.2914 8.12965ZM14.292 14.3145C12.5822 16.0285 9.80779 16.0285 8.09799 14.3145L13.1954 9.22958C12.092 8.12347 10.298 8.12347 9.19463 9.22958L14.292 14.3145ZM8.09799 14.3145L3.43664 9.6417L8.53405 4.55678L13.1954 9.22958L8.09799 14.3145ZM8.53409 9.64166L3.87289 14.3145L-1.2246 9.22962L3.4366 4.55682L8.53409 9.64166ZM3.87225 14.3151C2.16278 16.028 -0.611069 16.0288 -2.3212 14.3145L2.77621 9.22958C1.67249 8.12314 -0.121175 8.124 -1.22397 9.22898L3.87225 14.3151ZM-2.3206 14.3151C-4.02647 12.6058 -4.02647 9.83891 -2.3206 8.12965L2.77562 13.2158C3.87479 12.1144 3.87479 10.3303 2.77562 9.22898L-2.3206 14.3151ZM-2.32124 8.13029L2.33997 3.45749L7.43746 8.54233L2.77625 13.2151L-2.32124 8.13029ZM2.33997 8.54233L-2.32124 3.86953L2.77625 -1.21531L7.43746 3.45749L2.33997 8.54233ZM-2.3206 3.87017C-4.02647 2.16092 -4.02647 -0.606021 -2.3206 -2.31527L2.77562 2.77084C3.87479 1.66948 3.87479 -0.114582 2.77562 -1.21594L-2.3206 3.87017ZM-2.32239 -2.31348C-1.46993 -3.16884 -0.342317 -3.6 0.775826 -3.6V3.6C1.4969 3.6 2.22716 3.32116 2.77741 2.76904L-2.32239 -2.31348ZM0.775826 -3.6C1.89498 -3.6 3.02142 -3.1682 3.87285 -2.31468L-1.22456 2.77024C-0.675626 3.32053 0.0537469 3.6 0.775826 3.6V-3.6ZM3.87289 -2.31464L8.53409 2.35816L3.4366 7.443L-1.2246 2.7702L3.87289 -2.31464ZM3.43664 2.35812L8.09799 -2.31468L13.1954 2.77024L8.53405 7.44304L3.43664 2.35812ZM8.09799 -2.31468C8.94941 -3.1682 10.0759 -3.6 11.195 -3.6V3.6C11.9171 3.6 12.6465 3.32053 13.1954 2.77024L8.09799 -2.31468ZM11.195 -3.6C12.3142 -3.6 13.4406 -3.1682 14.292 -2.31468L9.19463 2.77024C9.74356 3.32053 10.4729 3.6 11.195 3.6V-3.6ZM14.2914 -2.31527C15.9973 -0.606021 15.9973 2.16092 14.2914 3.87017L9.19522 -1.21594C8.09604 -0.114582 8.09604 1.66948 9.19522 2.77084L14.2914 -2.31527ZM14.2921 3.86953L9.63087 8.54233L4.53338 3.45749L9.19459 -1.21531L14.2921 3.86953Z" fill="#48525B" mask="url(#path-1-inside-1_166_4631)"/>
</g>
</svg>
