<svg width="120" height="20" viewBox="0 0 120 20" fill="none" xmlns="http://www.w3.org/2000/svg">
<g opacity="0.8">
<path d="M12.2258 2.65991C12.4866 2.37733 12.617 2.23604 12.7556 2.15362C13.09 1.95477 13.5017 1.94858 13.8416 2.13731C13.9825 2.21553 14.1169 2.35284 14.3858 2.62747C14.6546 2.90209 14.789 3.0394 14.8656 3.18332C15.0503 3.53059 15.0443 3.95118 14.8496 4.29275C14.7689 4.43431 14.6306 4.56752 14.354 4.83395L11.0627 8.004C10.5385 8.50891 10.2764 8.76136 9.94882 8.88931C9.62124 9.01725 9.26112 9.00784 8.54088 8.989L8.44288 8.98644C8.22362 8.98071 8.11398 8.97784 8.05026 8.90552C7.98653 8.83319 7.99523 8.72152 8.01263 8.49816L8.02208 8.37688C8.07105 7.74824 8.09554 7.43392 8.2183 7.15138C8.34105 6.86883 8.5528 6.63941 8.9763 6.18058L12.2258 2.65991Z" stroke="black" stroke-linejoin="round"/>
<path d="M11.8501 2.69995L14.3001 5.14995" stroke="black" stroke-linejoin="round"/>
<path d="M12.2002 9L15.0002 9" stroke="black" stroke-linecap="round" stroke-linejoin="round"/>
</g>
<path opacity="0.8" d="M19.82 9V1.95H24.38V2.79H20.82V5H24.17V5.84H20.82V8.16H24.38V9H19.82ZM27.4196 9.09C26.9929 9.09 26.6163 8.99 26.2896 8.79C25.9696 8.58333 25.7196 8.29 25.5396 7.91C25.3596 7.53 25.2696 7.08 25.2696 6.56C25.2696 6.04 25.3596 5.59333 25.5396 5.22C25.7196 4.84 25.9696 4.54667 26.2896 4.34C26.6096 4.13333 26.9863 4.03 27.4196 4.03C27.7863 4.03 28.1129 4.11 28.3996 4.27C28.6863 4.43 28.8996 4.64667 29.0396 4.92V1.95H30.0496V9H29.0596V8.15C28.9196 8.44333 28.7029 8.67333 28.4096 8.84C28.1229 9.00667 27.7929 9.09 27.4196 9.09ZM27.6796 8.31C28.0929 8.31 28.4263 8.16 28.6796 7.86C28.9329 7.56 29.0596 7.12667 29.0596 6.56C29.0596 5.99333 28.9329 5.56333 28.6796 5.27C28.4263 4.97 28.0929 4.82 27.6796 4.82C27.2596 4.82 26.9229 4.97 26.6696 5.27C26.4163 5.56333 26.2896 5.99333 26.2896 6.56C26.2896 7.12667 26.4163 7.56 26.6696 7.86C26.9229 8.16 27.2596 8.31 27.6796 8.31ZM31.3778 2.99V1.94H32.5578V2.99H31.3778ZM31.4678 9V4.12H32.4778V9H31.4678ZM35.9795 9.09C35.3661 9.09 34.9095 8.93333 34.6095 8.62C34.3095 8.30667 34.1595 7.85333 34.1595 7.26V4.9H33.2095V4.12H34.1595V2.65H35.1695V4.12H36.6795V4.9H35.1695V7.18C35.1695 7.53333 35.2428 7.8 35.3895 7.98C35.5428 8.16 35.7895 8.25 36.1295 8.25C36.2361 8.25 36.3395 8.24 36.4395 8.22C36.5395 8.19333 36.6395 8.16333 36.7395 8.13L36.8995 8.89C36.7995 8.95 36.6595 8.99667 36.4795 9.03C36.3061 9.07 36.1395 9.09 35.9795 9.09Z" fill="black"/>

</svg>
